<svg width="28" height="20" viewBox="0 0 28 20" fill="none" xmlns="http://www.w3.org/2000/svg">
<path d="M24.9276 0.525689L9.52274 15.7007L3.09192 9.36585C2.75225 9.03126 2.29156 8.84328 1.8112 8.84328C1.33084 8.84328 0.870156 9.03126 0.53049 9.36585C0.190823 9.70045 0 10.1543 0 10.6275C0 10.8618 0.0468485 11.0938 0.13787 11.3102C0.228892 11.5267 0.362304 11.7234 0.53049 11.8891L8.23294 19.4766C8.94142 20.1745 10.0859 20.1745 10.7944 19.4766L27.4709 3.04889C27.6402 2.88148 27.7741 2.68266 27.865 2.46393C27.9558 2.24521 28.0016 2.01092 28 1.77461C27.9983 1.53831 27.949 1.30468 27.8551 1.08723C27.7612 0.869787 27.6244 0.672845 27.4527 0.507795C26.7806 -0.172218 25.6361 -0.172218 24.9276 0.525689Z" fill="#BC915F"/>
</svg>
