<svg width="46" height="46" viewBox="0 0 46 46" fill="none" xmlns="http://www.w3.org/2000/svg">
<path d="M23 0C26.0204 0 29.0112 0.594913 31.8017 1.75077C34.5922 2.90663 37.1277 4.6008 39.2635 6.73654C41.3992 8.87229 43.0934 11.4078 44.2492 14.1983C45.4051 16.9888 46 19.9796 46 23C46 29.1 43.5768 34.9501 39.2635 39.2635C34.9501 43.5768 29.1 46 23 46C19.9796 46 16.9888 45.4051 14.1983 44.2492C11.4078 43.0934 8.87229 41.3992 6.73654 39.2635C2.42321 34.9501 0 29.1 0 23C0 16.9 2.42321 11.0499 6.73654 6.73654C11.0499 2.42321 16.9 0 23 0ZM16.1 11.5V34.5H25.3C26.52 34.5 27.69 34.0154 28.5527 33.1527C29.4154 32.29 29.9 31.12 29.9 29.9V16.1C29.9 14.88 29.4154 13.71 28.5527 12.8473C27.69 11.9846 26.52 11.5 25.3 11.5H16.1ZM20.7 16.1H25.3V29.9H20.7V16.1Z" fill="#BC915F"/>
</svg>
