<svg width="30" height="30" viewBox="0 0 30 30" fill="none" xmlns="http://www.w3.org/2000/svg">
<path opacity="0.5" d="M30 15C30 12.0334 29.1204 9.1335 27.4723 6.66684C25.8242 4.20019 23.4818 2.2776 20.7411 1.14217C18.0004 0.00674768 14.9846 -0.290521 12.075 0.287953C9.16542 0.866428 6.49267 2.29467 4.39473 4.39208C2.29679 6.48949 0.867886 9.16188 0.288685 12.0714C-0.290517 14.9808 0.00599824 17.9967 1.14074 20.7377C2.27548 23.4786 4.19748 25.8216 6.66372 27.4702C9.12997 29.1189 12.0297 29.9993 14.9963 30H15L15.0038 29.9999C18.98 29.9944 22.7917 28.4122 25.6029 25.6003C28.4142 22.7883 29.9955 18.9762 30 15ZM16.1538 27.6392V18.4617H19.6154C19.9214 18.4617 20.2149 18.3401 20.4313 18.1237C20.6477 17.9073 20.7692 17.6139 20.7692 17.3078C20.7692 17.0018 20.6477 16.7083 20.4313 16.4919C20.2149 16.2756 19.9214 16.154 19.6154 16.154H16.1538V12.6925C16.1545 12.0806 16.3979 11.4941 16.8305 11.0614C17.2631 10.6288 17.8497 10.3855 18.4615 10.3848H20.7692C21.0753 10.3848 21.3687 10.2632 21.5851 10.0468C21.8015 9.83042 21.9231 9.53694 21.9231 9.23092C21.9231 8.9249 21.8015 8.63141 21.5851 8.41503C21.3687 8.19864 21.0753 8.07707 20.7692 8.07707H18.4615C17.2379 8.07845 16.0647 8.56515 15.1995 9.4304C14.3342 10.2957 13.8475 11.4688 13.8462 12.6925V16.154H10.3846C10.0786 16.154 9.78512 16.2756 9.56873 16.4919C9.35234 16.7083 9.23077 17.0018 9.23077 17.3078C9.23077 17.6139 9.35234 17.9073 9.56873 18.1237C9.78512 18.3401 10.0786 18.4617 10.3846 18.4617H13.8462V27.6392C10.5935 27.3423 7.58043 25.8029 5.43381 23.3411C3.28719 20.8793 2.17223 17.6848 2.32084 14.422C2.46946 11.1591 3.87022 8.07917 6.23175 5.82275C8.59328 3.56634 11.7338 2.30718 15 2.30718C18.2662 2.30718 21.4067 3.56634 23.7683 5.82275C26.1298 8.07917 27.5305 11.1591 27.6792 14.422C27.8278 17.6848 26.7128 20.8793 24.5662 23.3411C22.4196 25.8029 19.4065 27.3423 16.1538 27.6392Z" fill="white"/>
</svg>
