<svg width="30" height="30" viewBox="0 0 30 30" fill="none" xmlns="http://www.w3.org/2000/svg">
<path opacity="0.5" d="M15 7.95918C13.6075 7.95918 12.2462 8.37212 11.0883 9.14577C9.93048 9.91943 9.02804 11.0191 8.49513 12.3056C7.96223 13.5921 7.8228 15.0078 8.09447 16.3736C8.36614 17.7394 9.03672 18.9939 10.0214 19.9786C11.0061 20.9633 12.2606 21.6339 13.6264 21.9055C14.9922 22.1772 16.4079 22.0378 17.6944 21.5049C18.9809 20.972 20.0806 20.0695 20.8542 18.9117C21.6279 17.7538 22.0408 16.3925 22.0408 15C22.0387 13.1333 21.2962 11.3437 19.9763 10.0237C18.6563 8.70376 16.8667 7.96129 15 7.95918ZM15 20.2041C13.9707 20.2041 12.9646 19.8989 12.1088 19.327C11.253 18.7552 10.5859 17.9424 10.1921 16.9915C9.79817 16.0406 9.69511 14.9942 9.89591 13.9847C10.0967 12.9752 10.5924 12.048 11.3202 11.3202C12.048 10.5924 12.9752 10.0967 13.9847 9.89591C14.9942 9.69511 16.0406 9.79817 16.9915 10.1921C17.9424 10.5859 18.7552 11.253 19.327 12.1088C19.8989 12.9646 20.2041 13.9707 20.2041 15C20.2025 16.3797 19.6537 17.7025 18.6781 18.6781C17.7025 19.6537 16.3797 20.2025 15 20.2041ZM21.7347 0H8.26531C6.07398 0.00251164 3.97313 0.874125 2.42363 2.42363C0.874125 3.97313 0.00251164 6.07398 0 8.26531V21.7347C0.00251164 23.926 0.874125 26.0269 2.42363 27.5764C3.97313 29.1259 6.07398 29.9975 8.26531 30H21.7347C23.926 29.9975 26.0269 29.1259 27.5764 27.5764C29.1259 26.0269 29.9975 23.926 30 21.7347V8.26531C29.9975 6.07398 29.1259 3.97313 27.5764 2.42363C26.0269 0.874125 23.926 0.00251164 21.7347 0ZM28.1633 21.7347C28.1614 23.4391 27.4835 25.0731 26.2783 26.2783C25.0731 27.4835 23.4391 28.1614 21.7347 28.1633H8.26531C6.56093 28.1614 4.9269 27.4835 3.72172 26.2783C2.51654 25.0731 1.83864 23.4391 1.83673 21.7347V8.26531C1.83864 6.56093 2.51654 4.9269 3.72172 3.72172C4.9269 2.51654 6.56093 1.83864 8.26531 1.83673H21.7347C23.4391 1.83864 25.0731 2.51654 26.2783 3.72172C27.4835 4.9269 28.1614 6.56093 28.1633 8.26531V21.7347ZM24.4898 7.04082C24.4898 7.34354 24.4 7.63947 24.2318 7.89118C24.0637 8.14289 23.8246 8.33907 23.5449 8.45492C23.2652 8.57077 22.9575 8.60108 22.6606 8.54202C22.3637 8.48296 22.0909 8.33718 21.8769 8.12312C21.6628 7.90906 21.517 7.63633 21.458 7.33942C21.3989 7.04251 21.4292 6.73476 21.5451 6.45508C21.6609 6.17539 21.8571 5.93634 22.1088 5.76816C22.3605 5.59997 22.6565 5.5102 22.9592 5.5102C23.365 5.51069 23.754 5.67211 24.041 5.95905C24.3279 6.24599 24.4893 6.63502 24.4898 7.04082Z" fill="white"/>
</svg>
