<svg width="20" height="20" viewBox="0 0 20 20" fill="none" xmlns="http://www.w3.org/2000/svg">
<path opacity="0.5" fill-rule="evenodd" clip-rule="evenodd" d="M1.61154 10.8117C1.30917 10.8115 1.01926 10.6912 0.805608 10.4773C0.591951 10.2633 0.472041 9.97322 0.472254 9.67085C0.472468 9.36848 0.59279 9.07859 0.806748 8.86493C1.02071 8.65127 1.31078 8.53136 1.61315 8.53157L14.814 8.53157L10.3536 4.07113C10.1399 3.85744 10.0198 3.56762 10.0198 3.26541C10.0198 2.96321 10.1399 2.67339 10.3536 2.4597C10.5672 2.24601 10.8571 2.12596 11.1593 2.12596C11.4615 2.12596 11.7513 2.24601 11.965 2.4597L18.3704 8.86514C18.5841 9.07883 18.7042 9.36865 18.7042 9.67085C18.7042 9.97306 18.5841 10.2629 18.3704 10.4766L11.965 16.882C11.7513 17.0957 11.4615 17.2158 11.1593 17.2158C10.8571 17.2158 10.5672 17.0957 10.3536 16.882C10.1399 16.6683 10.0198 16.3785 10.0198 16.0763C10.0198 15.7741 10.1399 15.4843 10.3536 15.2706L14.814 10.8101L1.61154 10.8117Z" fill="#BC915F"/>
</svg>
