<svg width="30" height="30" viewBox="0 0 30 30" fill="none" xmlns="http://www.w3.org/2000/svg">
<g opacity="0.5">
<path d="M12.2025 1.92214C14.2358 1.92029 16.2239 2.52086 17.9154 3.64789C19.6069 4.77492 20.9258 6.37777 21.7051 8.25366C22.4845 10.1296 22.6894 12.1942 22.2939 14.1864C21.8983 16.1787 20.9202 18.009 19.4831 19.4458C18.046 20.8826 16.2146 21.8614 14.2206 22.2583C12.2265 22.6552 10.1594 22.4524 8.28077 21.6756C6.40211 20.8988 4.7963 19.5828 3.6665 17.8942C2.53669 16.2056 1.93364 14.2202 1.93364 12.1892C1.94596 9.47161 3.03152 6.86871 4.95439 4.9462C6.87725 3.02369 9.482 1.93694 12.2025 1.92214ZM12.2025 0C9.78911 0 7.42987 0.714884 5.42318 2.05425C3.41648 3.39361 1.85245 5.29731 0.928868 7.52459C0.00528734 9.75187 -0.236364 12.2027 0.234474 14.5672C0.705311 16.9317 1.86749 19.1036 3.57405 20.8083C5.2806 22.5129 7.45489 23.6738 9.82195 24.1442C12.189 24.6145 14.6425 24.3731 16.8722 23.4505C19.102 22.528 21.0077 20.9656 22.3486 18.9611C23.6894 16.9566 24.4051 14.6 24.4051 12.1892C24.4051 8.95642 23.1195 5.85605 20.831 3.57013C18.5426 1.28421 15.4389 0 12.2025 0Z" fill="black"/>
<path d="M29.7273 28.4008L22.8094 21.4436L21.4765 22.7657L28.3944 29.7229C28.4813 29.8103 28.5846 29.8798 28.6983 29.9273C28.8121 29.9749 28.9342 29.9996 29.0575 30C29.1808 30.0004 29.303 29.9766 29.4172 29.9299C29.5313 29.8831 29.635 29.8144 29.7226 29.7276C29.8101 29.6408 29.8796 29.5376 29.9272 29.4239C29.9748 29.3103 29.9996 29.1884 30 29.0652C30.0004 28.942 29.9766 28.8199 29.9298 28.7059C29.883 28.5919 29.8142 28.4882 29.7273 28.4008Z" fill="black"/>
</g>
</svg>
