<svg width="28" height="32" viewBox="0 0 28 32" fill="none" xmlns="http://www.w3.org/2000/svg">
<path opacity="0.5" d="M19.8874 14.5V7C19.8874 5.4087 19.2671 3.88258 18.163 2.75736C17.0589 1.63214 15.5614 1 14 1C12.4386 1 10.9411 1.63214 9.83697 2.75736C8.73287 3.88258 8.11259 5.4087 8.11259 7V14.5M2.30025 11.38C2.32985 11.0041 2.4973 10.6534 2.76924 10.3976C3.04118 10.1419 3.39766 9.99992 3.76769 10H24.2323C24.6023 9.99992 24.9588 10.1419 25.2308 10.3976C25.5027 10.6534 25.6701 11.0041 25.6997 11.38L26.9906 27.76C27.0231 28.1728 26.9714 28.588 26.8387 28.9794C26.7061 29.3708 26.4953 29.73 26.2198 30.0344C25.9442 30.3387 25.6098 30.5816 25.2376 30.7478C24.8654 30.914 24.4635 30.9999 24.0572 31H3.94284C3.53649 30.9999 3.13457 30.914 2.76238 30.7478C2.39019 30.5816 2.05579 30.3387 1.78024 30.0344C1.50469 29.73 1.29395 29.3708 1.16129 28.9794C1.02863 28.588 0.976928 28.1728 1.00944 27.76L2.30025 11.38Z" stroke="black" stroke-width="2" stroke-linecap="round" stroke-linejoin="round"/>
</svg>
