<svg width="22" height="21" viewBox="0 0 22 21" fill="none" xmlns="http://www.w3.org/2000/svg">
<path opacity="0.5" d="M20.9601 14.6122C20.3428 14.4685 19.7608 14.202 19.2487 13.8287C18.7366 13.4554 18.3048 12.9829 17.9791 12.4392C17.8305 12.2195 17.6006 12.0678 17.3401 12.0176C17.0796 11.9673 16.8099 12.0226 16.5901 12.1712C16.3704 12.3199 16.2187 12.5497 16.1685 12.8102C16.1182 13.0707 16.1735 13.3405 16.3221 13.5602C16.9417 14.5057 17.7622 15.303 18.7251 15.8951C18.5901 15.9201 18.4441 15.9451 18.2831 15.9701C17.9987 16.0307 17.741 16.1804 17.5475 16.3975C17.354 16.6145 17.2348 16.8876 17.2071 17.1771C16.5407 17.0635 15.86 17.0621 15.1931 17.1731C14.4738 17.3318 13.8027 17.6595 13.2352 18.1291C12.6511 18.6465 11.9101 18.9529 11.1312 18.9991H10.8712C10.0913 18.9527 9.34961 18.6456 8.76521 18.1271C8.20573 17.6633 7.5449 17.3379 6.83623 17.1771C6.16035 17.0695 5.47159 17.0712 4.79625 17.1821C4.7699 16.894 4.65291 16.6218 4.4621 16.4044C4.27128 16.187 4.01647 16.0356 3.73426 15.9721C3.58884 15.9497 3.44382 15.9246 3.29927 15.8971C3.97901 15.504 4.58617 14.9969 5.09425 14.3982C5.32878 14.1263 5.54112 13.836 5.72924 13.5302C5.8698 13.3053 5.91527 13.0338 5.85563 12.7754C5.79599 12.5169 5.63614 12.2928 5.41124 12.1522C5.18634 12.0117 4.91481 11.9662 4.65639 12.0259C4.39797 12.0855 4.17382 12.2453 4.03326 12.4702C3.90011 12.6869 3.75033 12.8928 3.58526 13.0862C2.94606 13.8864 2.03953 14.4289 1.03229 14.6142C0.739883 14.6605 0.474193 14.8113 0.284443 15.0386C0.0946924 15.2658 -0.00625573 15.5542 0.000300401 15.8501C-9.23487e-05 16.034 0.0391303 16.2158 0.115299 16.3831C0.431296 17.0991 1.27129 17.5511 2.90027 17.8571L2.93027 17.9871C2.96027 18.1051 2.98827 18.2261 3.02327 18.3351C3.10004 18.6127 3.26763 18.8567 3.49927 19.028C3.73092 19.1993 4.01327 19.288 4.30125 19.28C4.50497 19.2749 4.70737 19.2457 4.90425 19.193C5.42706 19.0871 5.96416 19.0716 6.49223 19.147C6.90661 19.27 7.28964 19.4807 7.61522 19.765C8.53461 20.5239 9.6788 20.958 10.8702 21H11.1312C12.3302 20.9561 13.4811 20.5174 14.4051 19.752C14.7321 19.4671 15.1185 19.2587 15.5361 19.142C15.7422 19.106 15.951 19.0886 16.1601 19.09C16.4814 19.0893 16.8018 19.1249 17.1151 19.196C17.3184 19.2342 17.5244 19.2556 17.7311 19.26C18.012 19.2676 18.2872 19.1808 18.5129 19.0135C18.7386 18.8462 18.9017 18.608 18.9761 18.3371C19.0141 18.2151 19.0431 18.0971 19.0701 17.9821L19.1021 17.8581C20.7261 17.5531 21.5691 17.1041 21.8691 16.4181C21.9453 16.2691 21.9886 16.1054 21.9961 15.9381C22.0208 15.6275 21.9281 15.319 21.7363 15.0734C21.5444 14.8279 21.2674 14.6633 20.9601 14.6122ZM2.81027 10.1463C3.01489 10.1851 3.2265 10.1593 3.41585 10.0726C3.6052 9.98594 3.76294 9.84255 3.86726 9.66231C4.26351 9.86403 4.6981 9.97924 5.14224 10.0003C5.61305 10.0064 6.06739 9.8272 6.40723 9.50131C6.51494 9.40107 6.59919 9.27829 6.65398 9.14174C6.70878 9.00518 6.73276 8.85822 6.72423 8.71134L6.68823 8.10935C6.5244 6.92272 6.57726 5.71621 6.84423 4.54845C7.18173 3.78131 7.73802 3.13077 8.44347 2.67827C9.14892 2.22576 9.97218 1.9914 10.8102 2.00452L11.1982 2.00052C12.0354 1.98936 12.8574 2.22494 13.5616 2.67787C14.2658 3.13079 14.8211 3.78102 15.1581 4.54745C15.4251 5.71622 15.478 6.92372 15.3141 8.11135L15.3041 8.27435L15.2771 8.71834C15.2716 8.86265 15.2965 9.00652 15.3502 9.14057C15.404 9.27461 15.4854 9.39583 15.5891 9.49631C15.9257 9.82089 16.3756 10.0014 16.8431 9.9993C17.277 9.96146 17.6989 9.83737 18.0841 9.63431C18.1622 9.81218 18.2904 9.96346 18.4531 10.0697C18.6158 10.1758 18.8058 10.2324 19.0001 10.2323H19.0181C19.2831 10.2276 19.5355 10.1178 19.7196 9.92708C19.9038 9.73638 20.0046 9.48037 20.0001 9.21532C19.9741 8.8815 19.8466 8.56361 19.6348 8.30427C19.423 8.04493 19.137 7.85654 18.8151 7.76436C18.5805 7.66811 18.3292 7.61944 18.0756 7.62115C17.8221 7.62287 17.5714 7.67495 17.3381 7.77436C17.5135 6.41731 17.3927 5.03838 16.9841 3.73247C16.4919 2.60954 15.6796 1.65662 14.6487 0.992854C13.6178 0.329093 12.4142 -0.0160518 11.1882 0.000573547L10.7952 0.00457351C9.57226 -0.0102942 8.37207 0.335575 7.34461 0.998958C6.31715 1.66234 5.50799 2.61381 5.01825 3.73447C4.60637 5.05762 4.48628 6.45433 4.66625 7.82836L4.55525 7.77636C4.31085 7.67758 4.04863 7.63049 3.78513 7.63805C3.52163 7.64561 3.26254 7.70766 3.02421 7.8203C2.78587 7.93294 2.57345 8.09372 2.40032 8.2925C2.22719 8.49129 2.09711 8.72378 2.01828 8.97533C1.9687 9.2357 2.02431 9.50512 2.17293 9.72459C2.32156 9.94405 2.55109 10.0957 2.81127 10.1463H2.81027Z" fill="white"/>
</svg>
