<svg width="23" height="21" viewBox="0 0 23 21" fill="none" xmlns="http://www.w3.org/2000/svg">
<path opacity="0.5" d="M22.2323 0.49492C21.9346 0.247392 21.5754 0.0851811 21.1928 0.025553C20.8102 -0.034075 20.4186 0.0111121 20.0597 0.156304L1.32301 7.71768C0.922427 7.88249 0.58144 8.16516 0.345292 8.52818C0.109143 8.89121 -0.0110031 9.31742 0.000792302 9.75028C0.0125877 10.1831 0.155768 10.6022 0.411336 10.9518C0.666904 11.3015 1.02278 11.5651 1.43175 11.7079L5.22174 13.0258L7.33369 20.0092C7.36263 20.1024 7.40451 20.1911 7.4581 20.2726C7.46647 20.2851 7.47797 20.2935 7.48633 20.3071C7.54795 20.3928 7.62234 20.4686 7.70694 20.5318C7.73055 20.5503 7.75497 20.5677 7.78012 20.584C7.87915 20.6497 7.98881 20.6978 8.10423 20.7262L8.11782 20.7272L8.1241 20.7304C8.19397 20.7444 8.26507 20.7514 8.33634 20.7513L8.35516 20.7481C8.46223 20.7463 8.56839 20.728 8.66986 20.6938C8.6939 20.6854 8.71377 20.6729 8.73677 20.6624C8.81267 20.6313 8.88462 20.5913 8.9511 20.5433C9.00406 20.4983 9.05703 20.4534 9.11002 20.4085L11.935 17.2909L16.1484 20.5537C16.5193 20.8425 16.9758 20.9995 17.4459 21C17.9386 20.9994 18.4161 20.8295 18.7984 20.5188C19.1806 20.208 19.4443 19.7754 19.5453 19.2933L22.9568 2.55379C23.034 2.17719 23.0073 1.78671 22.8797 1.42408C22.7521 1.06145 22.5283 0.740287 22.2323 0.49492ZM8.75036 13.3581C8.60557 13.5026 8.50664 13.6866 8.46598 13.887L8.14187 15.4588L7.32219 12.7488L11.5722 10.5363L8.75036 13.3581ZM17.4302 18.9014L12.4504 15.045C12.2421 14.8842 11.9808 14.8079 11.7186 14.8311C11.4565 14.8544 11.2127 14.9755 11.0359 15.1704L10.1304 16.1684L10.4504 14.6144L17.8558 7.21185C18.0315 7.03514 18.1382 6.80149 18.1568 6.55303C18.1754 6.30457 18.1046 6.05765 17.9571 5.85679C17.8097 5.65592 17.5953 5.51432 17.3526 5.45751C17.1099 5.40071 16.8549 5.43244 16.6336 5.54699L6.00588 11.0777L2.11133 9.65323L20.9087 2.13783L17.4302 18.9014Z" fill="white"/>
</svg>
