<svg width="24" height="21" viewBox="0 0 24 21" fill="none" xmlns="http://www.w3.org/2000/svg">
<path opacity="0.5" d="M23.9926 1.46736C23.9926 1.26936 23.9416 1.07489 23.8449 0.903715C23.7481 0.732539 23.609 0.590755 23.4418 0.492763C23.2745 0.394771 23.085 0.344065 22.8925 0.345794C22.7 0.347523 22.5114 0.401626 22.3458 0.502608C21.7072 0.893906 21.0196 1.19358 20.302 1.39332C19.2779 0.489454 17.9718 -0.005109 16.6223 3.98005e-05C15.1421 0.00186445 13.7205 0.595305 12.6576 1.65506C11.5948 2.71482 10.9739 4.15794 10.9261 5.67973C8.00744 5.20109 5.36216 3.63416 3.49474 1.27777C3.38222 1.13752 3.23859 1.02711 3.07594 0.955859C2.91329 0.884603 2.73638 0.85458 2.5601 0.868316C2.38385 0.88332 2.21381 0.942228 2.06465 1.03995C1.91549 1.13767 1.7917 1.27128 1.70397 1.42922C1.25412 2.2368 0.995779 3.14213 0.949921 4.07169C0.904064 5.00125 1.07198 5.92883 1.44005 6.7791L1.43787 6.78022C1.27208 6.88501 1.13526 7.03187 1.04053 7.2067C0.945804 7.38153 0.896354 7.57848 0.896926 7.77863C0.895176 7.9433 0.905017 8.10789 0.926372 8.2711C1.03775 9.68239 1.64577 11.0034 2.63644 11.9865C2.56921 12.1183 2.52822 12.2626 2.51586 12.411C2.5035 12.5593 2.52003 12.7086 2.56446 12.8503C2.99631 14.2348 3.91491 15.4037 5.14046 16.1282C3.89518 16.6234 2.55061 16.796 1.2252 16.6308C0.98 16.5994 0.731714 16.6546 0.521004 16.7874C0.310295 16.9201 0.149651 17.1225 0.0653842 17.3614C-0.0188831 17.6003 -0.0217793 17.8616 0.05717 18.1025C0.136119 18.3433 0.292234 18.5494 0.499947 18.687C2.77954 20.197 5.43371 20.9997 8.14508 20.9991C11.2198 21.0347 14.2197 20.0241 16.6782 18.1246C19.1368 16.225 20.9161 13.543 21.7394 10.4956C22.1244 9.16828 22.3209 7.79069 22.3229 6.40554L22.3218 6.18118C22.8913 5.54938 23.3324 4.807 23.6193 3.99756C23.9062 3.18812 24.0331 2.32791 23.9926 1.46736ZM20.3871 5.07059C20.2068 5.28959 20.1154 5.57161 20.1319 5.8581C20.1428 6.0432 20.1417 6.22942 20.1417 6.40554C20.1394 7.57578 19.9726 8.73954 19.6466 9.8607C18.9744 12.4539 17.4756 14.74 15.3903 16.3529C13.3049 17.9659 10.7536 18.8123 8.14508 18.7566C7.20839 18.7567 6.27495 18.6434 5.36404 18.4189C6.52587 18.0335 7.61216 17.4395 8.57259 16.6644C8.74969 16.5212 8.87933 16.3251 8.94369 16.103C9.00804 15.881 9.00396 15.6438 8.93201 15.4242C8.86005 15.2047 8.72375 15.0134 8.54183 14.8767C8.35991 14.74 8.1413 14.6646 7.91605 14.6609C7.00946 14.6463 6.14378 14.2703 5.50145 13.612C5.66432 13.5806 5.82609 13.5413 5.98677 13.4942C6.22237 13.4253 6.42856 13.2769 6.57214 13.0728C6.71571 12.8686 6.78831 12.6207 6.77824 12.369C6.76816 12.1173 6.676 11.8764 6.51659 11.6851C6.35719 11.4938 6.13983 11.3633 5.89952 11.3146C5.3733 11.2076 4.87814 10.9773 4.45254 10.6415C4.02695 10.3057 3.68239 9.87342 3.44567 9.37832C3.6428 9.40603 3.84119 9.42326 4.04005 9.42992C4.27636 9.43392 4.50777 9.3604 4.70073 9.22001C4.89368 9.07963 5.03816 8.87968 5.1132 8.64915C5.18523 8.41667 5.18162 8.16637 5.10289 7.9362C5.02417 7.70603 4.87464 7.50854 4.67696 7.37366C4.19702 7.04504 3.80383 6.5991 3.5326 6.07578C3.26137 5.55246 3.12059 4.96811 3.12285 4.37508C3.12285 4.30104 3.12503 4.22588 3.12939 4.15296C5.57394 6.49824 8.74481 7.88074 12.0832 8.05684C12.2518 8.06342 12.4196 8.03048 12.574 7.96051C12.7284 7.89055 12.8652 7.78539 12.9743 7.65299C13.0823 7.51977 13.1588 7.36261 13.1977 7.19385C13.2367 7.02509 13.2371 6.84933 13.1989 6.68038C13.1365 6.41251 13.1047 6.13805 13.1041 5.86259C13.1052 4.90315 13.4763 3.98335 14.1358 3.30492C14.7954 2.6265 15.6896 2.24484 16.6223 2.24365C17.1024 2.24219 17.5775 2.34312 18.0177 2.54007C18.4578 2.73701 18.8536 3.02569 19.1798 3.38789C19.3056 3.52713 19.4639 3.63094 19.6397 3.68946C19.8156 3.74797 20.003 3.75924 20.1842 3.72219C20.6323 3.63261 21.0739 3.51192 21.5061 3.36096C21.2114 3.98112 20.8348 4.55644 20.3871 5.07059Z" fill="white"/>
</svg>
